<mxfile>
  <diagram name="Simplified College ERD">
    <mxGraphModel dx="1476" dy="847" grid="1" gridSize="10" guides="1" tooltips="1" connect="1" arrows="1" fold="1" page="1" pageScale="1" pageWidth="827" pageHeight="1169" math="0" shadow="0">
      <root>
        <mxCell id="0" />
        <mxCell id="1" parent="0" />
        
        <!-- Department -->
        <mxCell id="department" value="Department" style="rounded=1;whiteSpace=wrap;html=1;fillColor=#D9EAD3;" vertex="1" parent="1">
          <mxGeometry x="40" y="40" width="120" height="60" as="geometry" />
        </mxCell>
        
        <!-- Program -->
        <mxCell id="program" value="Program" style="rounded=1;whiteSpace=wrap;html=1;fillColor=#D0E0E3;" vertex="1" parent="1">
          <mxGeometry x="220" y="40" width="120" height="60" as="geometry" />
        </mxCell>
        
        <!-- Professor -->
        <mxCell id="professor" value="Professor" style="rounded=1;whiteSpace=wrap;html=1;fillColor=#FCE5CD;" vertex="1" parent="1">
          <mxGeometry x="40" y="160" width="120" height="60" as="geometry" />
        </mxCell>
        
        <!-- Course -->
        <mxCell id="course" value="Course" style="rounded=1;whiteSpace=wrap;html=1;fillColor=#C9DAF8;" vertex="1" parent="1">
          <mxGeometry x="220" y="160" width="120" height="60" as="geometry" />
        </mxCell>
        
        <!-- Student -->
        <mxCell id="student" value="Student" style="rounded=1;whiteSpace=wrap;html=1;fillColor=#EAD1DC;" vertex="1" parent="1">
          <mxGeometry x="400" y="40" width="120" height="60" as="geometry" />
        </mxCell>
        
        <!-- Section -->
        <mxCell id="section" value="Section" style="rounded=1;whiteSpace=wrap;html=1;fillColor=#FFD966;" vertex="1" parent="1">
          <mxGeometry x="400" y="160" width="120" height="60" as="geometry" />
        </mxCell>
        
        <!-- Advisor -->
        <mxCell id="advisor" value="Advisor" style="rounded=1;whiteSpace=wrap;html=1;fillColor=#F4CCCC;" vertex="1" parent="1">
          <mxGeometry x="580" y="40" width="120" height="60" as="geometry" />
        </mxCell>
        
        <!-- Relationships -->
        <mxCell id="rel1" edge="1" source="department" target="program" style="endArrow=block;">
          <mxGeometry relative="1" as="geometry" />
        </mxCell>
        
        <mxCell id="rel2" edge="1" source="department" target="professor" style="endArrow=block;">
          <mxGeometry relative="1" as="geometry" />
        </mxCell>
        
        <mxCell id="rel3" edge="1" source="program" target="course" style="endArrow=block;">
          <mxGeometry relative="1" as="geometry" />
        </mxCell>
        
        <mxCell id="rel4" edge="1" source="program" target="student" style="endArrow=block;">
          <mxGeometry relative="1" as="geometry" />
        </mxCell>
        
        <mxCell id="rel5" edge="1" source="professor" target="section" style="endArrow=block;">
          <mxGeometry relative="1" as="geometry" />
        </mxCell>
        
        <mxCell id="rel6" edge="1" source="course" target="section" style="endArrow=block;">
          <mxGeometry relative="1" as="geometry" />
        </mxCell>
        
        <mxCell id="rel7" edge="1" source="student" target="course" style="endArrow=block;">
          <mxGeometry relative="1" as="geometry" />
        </mxCell>
        
        <mxCell id="rel8" edge="1" source="advisor" target="student" style="endArrow=block;">
          <mxGeometry relative="1" as="geometry" />
        </mxCell>
      </root>
    </mxGraphModel>
  </diagram>
</mxfile>
